<svg fill="none" height="78" viewBox="0 0 78 78" width="78" xmlns="http://www.w3.org/2000/svg"><g fill="#fff"><path d="m1.67578 57.7383v-37.4766c0-2.2394 1.93476-4.0675 4.31133-4.0675h66.02579c2.3766 0 4.3113 1.8281 4.3113 4.0675v37.4766c0 2.2395-1.9347 4.0676-4.3113 4.0676h-66.02579c-2.37657 0-4.31133-1.8129-4.31133-4.0676zm70.91602 0v-37.4766c0-.1371-.2285-.3351-.5789-.3351h-66.02579c-.36563 0-.57891.2133-.57891.3351v37.4766c0 .1371.22852.3352.57891.3352h66.02579c.3504 0 .5789-.1981.5789-.3352z"/><path d="m62.8723 31.4438c-1.2873 0-2.3309-1.0436-2.3309-2.3309s1.0436-2.3309 2.3309-2.3309 2.3308 1.0436 2.3308 2.3309-1.0435 2.3309-2.3308 2.3309z"/><path d="m53.3203 31.4438c-1.2873 0-2.3308-1.0436-2.3308-2.3309s1.0435-2.3309 2.3308-2.3309 2.3309 1.0436 2.3309 2.3309-1.0436 2.3309-2.3309 2.3309z"/><path d="m43.7836 31.4438c-1.2873 0-2.3309-1.0436-2.3309-2.3309s1.0436-2.3309 2.3309-2.3309 2.3308 1.0436 2.3308 2.3309-1.0435 2.3309-2.3308 2.3309z"/><path d="m34.2316 31.4438c-1.2873 0-2.3308-1.0436-2.3308-2.3309s1.0435-2.3309 2.3308-2.3309 2.3309 1.0436 2.3309 2.3309-1.0436 2.3309-2.3309 2.3309z"/><path d="m24.6797 31.4438c-1.2873 0-2.3309-1.0436-2.3309-2.3309s1.0436-2.3309 2.3309-2.3309 2.3309 1.0436 2.3309 2.3309-1.0436 2.3309-2.3309 2.3309z"/><path d="m15.1278 31.4438c-1.2873 0-2.3309-1.0436-2.3309-2.3309s1.0436-2.3309 2.3309-2.3309 2.3308 1.0436 2.3308 2.3309-1.0435 2.3309-2.3308 2.3309z"/><path d="m58.0887 41.3308c-1.2873 0-2.3309-1.0435-2.3309-2.3308s1.0436-2.3309 2.3309-2.3309 2.3309 1.0436 2.3309 2.3309-1.0436 2.3308-2.3309 2.3308z"/><path d="m48.552 41.3308c-1.2873 0-2.3309-1.0435-2.3309-2.3308s1.0436-2.3309 2.3309-2.3309 2.3308 1.0436 2.3308 2.3309-1.0435 2.3308-2.3308 2.3308z"/><path d="m39 41.3308c-1.2873 0-2.3308-1.0435-2.3308-2.3308s1.0435-2.3309 2.3308-2.3309 2.3309 1.0436 2.3309 2.3309-1.0436 2.3308-2.3309 2.3308z"/><path d="m29.4633 41.3308c-1.2873 0-2.3309-1.0435-2.3309-2.3308s1.0436-2.3309 2.3309-2.3309 2.3308 1.0436 2.3308 2.3309-1.0435 2.3308-2.3308 2.3308z"/><path d="m19.9113 36.6691c1.295 0 2.3309 1.0512 2.3309 2.3309 0 1.2949-1.0512 2.3308-2.3309 2.3308-1.2949 0-2.3308-1.0511-2.3308-2.3308 0-1.2949 1.0359-2.3309 2.3308-2.3309z"/><path d="m22.3489 47.0285h33.3023c1.0359 0 1.8738.8379 1.8738 1.8738 0 1.036-.8379 1.8739-1.8738 1.8739h-33.3023c-1.036 0-1.8739-.8379-1.8739-1.8739 0-1.0359.8379-1.8738 1.8739-1.8738z"/></g></svg>